# Blender 3.4.1
# www.blender.org
mtllib laser.mtl
o Cylinder.001
v 0.550439 1.539510 -8.388486
v 0.550441 1.539745 -8.592787
v 0.549026 1.539657 -8.388486
v 0.549027 1.539892 -8.592787
v 0.547668 1.540072 -8.388485
v 0.547670 1.540307 -8.592787
v 0.546420 1.540740 -8.388485
v 0.546421 1.540975 -8.592786
v 0.545327 1.541634 -8.388483
v 0.545329 1.541870 -8.592785
v 0.544433 1.542721 -8.388482
v 0.544435 1.542957 -8.592783
v 0.543772 1.543959 -8.388481
v 0.543774 1.544195 -8.592782
v 0.543369 1.545300 -8.388479
v 0.543371 1.545535 -8.592780
v 0.543239 1.546692 -8.388477
v 0.543241 1.546928 -8.592779
v 0.543388 1.548082 -8.388476
v 0.543390 1.548318 -8.592777
v 0.543810 1.549417 -8.388474
v 0.543812 1.549653 -8.592775
v 0.544489 1.550646 -8.388474
v 0.544491 1.550881 -8.592774
v 0.545398 1.551720 -8.388472
v 0.545400 1.551955 -8.592773
v 0.546503 1.552599 -8.388471
v 0.546505 1.552835 -8.592772
v 0.547761 1.553249 -8.388470
v 0.547763 1.553485 -8.592772
v 0.549124 1.553646 -8.388470
v 0.549126 1.553881 -8.592771
v 0.550539 1.553773 -8.388470
v 0.550541 1.554008 -8.592771
v 0.551953 1.553626 -8.388470
v 0.551954 1.553861 -8.592771
v 0.553310 1.553210 -8.388470
v 0.553312 1.553446 -8.592772
v 0.554559 1.552543 -8.388471
v 0.554560 1.552778 -8.592772
v 0.555651 1.551648 -8.388472
v 0.555653 1.551883 -8.592773
v 0.556545 1.550561 -8.388474
v 0.556547 1.550796 -8.592774
v 0.557206 1.549323 -8.388474
v 0.557208 1.549559 -8.592775
v 0.557609 1.547982 -8.388476
v 0.557611 1.548218 -8.592777
v 0.557739 1.546590 -8.388477
v 0.557741 1.546826 -8.592779
v 0.557590 1.545200 -8.388479
v 0.557592 1.545435 -8.592780
v 0.557168 1.543865 -8.388481
v 0.557170 1.544100 -8.592782
v 0.556489 1.542637 -8.388482
v 0.556491 1.542872 -8.592783
v 0.555580 1.541562 -8.388483
v 0.555582 1.541798 -8.592785
v 0.554475 1.540683 -8.388485
v 0.554477 1.540919 -8.592786
v 0.553217 1.540033 -8.388485
v 0.553219 1.540268 -8.592787
v 0.551854 1.539637 -8.388486
v 0.551856 1.539872 -8.592787
vn -0.1034 -0.9946 -0.0011
vn -0.2927 -0.9562 -0.0011
vn -0.4716 -0.8818 -0.0010
vn -0.6336 -0.7737 -0.0009
vn -0.7723 -0.6352 -0.0007
vn -0.8820 -0.4713 -0.0006
vn -0.9576 -0.2880 -0.0003
vn -0.9957 -0.0926 -0.0001
vn -0.9943 0.1066 0.0001
vn -0.9535 0.3014 0.0003
vn -0.8753 0.4836 0.0006
vn -0.7633 0.6460 0.0007
vn -0.6227 0.7825 0.0009
vn -0.4591 0.8884 0.0010
vn -0.2792 0.9602 0.0011
vn -0.0894 0.9960 0.0011
vn 0.1034 0.9946 0.0011
vn 0.2927 0.9562 0.0011
vn 0.4716 0.8818 0.0010
vn 0.6336 0.7737 0.0009
vn 0.7723 0.6352 0.0007
vn 0.8820 0.4713 0.0006
vn 0.9576 0.2880 0.0003
vn 0.9957 0.0926 0.0001
vn 0.9943 -0.1066 -0.0001
vn 0.9535 -0.3014 -0.0003
vn 0.8753 -0.4836 -0.0006
vn 0.7633 -0.6460 -0.0007
vn 0.6227 -0.7825 -0.0009
vn 0.4591 -0.8884 -0.0010
vn -0.0000 0.0012 -1.0000
vn 0.2792 -0.9602 -0.0011
vn 0.0894 -0.9960 -0.0011
vn -0.0000 -0.0012 1.0000
vt 1.000000 0.500000
vt 0.000000 0.500000
vt 0.750000 0.490000
vt 1.000000 1.000000
vt 0.250000 0.490000
vt 0.000000 1.000000
vt 0.968750 0.500000
vt 0.796822 0.485388
vt 0.968750 1.000000
vt 0.296822 0.485388
vt 0.937500 0.500000
vt 0.841844 0.471731
vt 0.937500 1.000000
vt 0.341844 0.471731
vt 0.906250 0.500000
vt 0.883337 0.449553
vt 0.906250 1.000000
vt 0.383337 0.449553
vt 0.875000 0.500000
vt 0.919706 0.419706
vt 0.875000 1.000000
vt 0.419706 0.419706
vt 0.843750 0.500000
vt 0.949553 0.383337
vt 0.843750 1.000000
vt 0.449553 0.383337
vt 0.812500 0.500000
vt 0.971731 0.341844
vt 0.812500 1.000000
vt 0.471731 0.341844
vt 0.781250 0.500000
vt 0.985388 0.296822
vt 0.781250 1.000000
vt 0.485388 0.296822
vt 0.750000 0.500000
vt 0.990000 0.250000
vt 0.750000 1.000000
vt 0.490000 0.250000
vt 0.718750 0.500000
vt 0.985388 0.203178
vt 0.718750 1.000000
vt 0.485388 0.203178
vt 0.687500 0.500000
vt 0.971731 0.158156
vt 0.687500 1.000000
vt 0.471731 0.158156
vt 0.656250 0.500000
vt 0.949553 0.116663
vt 0.656250 1.000000
vt 0.449553 0.116663
vt 0.625000 0.500000
vt 0.919706 0.080294
vt 0.625000 1.000000
vt 0.419706 0.080294
vt 0.593750 0.500000
vt 0.883337 0.050447
vt 0.593750 1.000000
vt 0.383337 0.050447
vt 0.562500 0.500000
vt 0.841844 0.028269
vt 0.562500 1.000000
vt 0.341844 0.028269
vt 0.531250 0.500000
vt 0.796822 0.014612
vt 0.531250 1.000000
vt 0.296822 0.014612
vt 0.500000 0.500000
vt 0.750000 0.010000
vt 0.500000 1.000000
vt 0.250000 0.010000
vt 0.468750 0.500000
vt 0.703178 0.014612
vt 0.468750 1.000000
vt 0.203178 0.014612
vt 0.437500 0.500000
vt 0.658156 0.028269
vt 0.437500 1.000000
vt 0.158156 0.028269
vt 0.406250 0.500000
vt 0.616663 0.050447
vt 0.406250 1.000000
vt 0.116663 0.050447
vt 0.375000 0.500000
vt 0.580294 0.080294
vt 0.375000 1.000000
vt 0.080294 0.080294
vt 0.343750 0.500000
vt 0.550447 0.116663
vt 0.343750 1.000000
vt 0.050447 0.116663
vt 0.312500 0.500000
vt 0.528269 0.158156
vt 0.312500 1.000000
vt 0.028269 0.158156
vt 0.281250 0.500000
vt 0.514612 0.203178
vt 0.281250 1.000000
vt 0.014612 0.203178
vt 0.250000 0.500000
vt 0.510000 0.250000
vt 0.250000 1.000000
vt 0.010000 0.250000
vt 0.218750 0.500000
vt 0.514612 0.296822
vt 0.218750 1.000000
vt 0.014612 0.296822
vt 0.187500 0.500000
vt 0.528269 0.341844
vt 0.187500 1.000000
vt 0.028269 0.341844
vt 0.156250 0.500000
vt 0.550447 0.383337
vt 0.156250 1.000000
vt 0.050447 0.383337
vt 0.125000 0.500000
vt 0.580294 0.419706
vt 0.125000 1.000000
vt 0.080294 0.419706
vt 0.093750 0.500000
vt 0.616663 0.449553
vt 0.093750 1.000000
vt 0.116663 0.449553
vt 0.062500 0.500000
vt 0.658156 0.471731
vt 0.158156 0.471731
vt 0.062500 1.000000
vt 0.031250 0.500000
vt 0.703178 0.485388
vt 0.203178 0.485388
vt 0.031250 1.000000
s 0
usemtl Material
f 1/1/1 3/7/1 4/9/1 2/4/1
f 3/7/2 5/11/2 6/13/2 4/9/2
f 5/11/3 7/15/3 8/17/3 6/13/3
f 7/15/4 9/19/4 10/21/4 8/17/4
f 9/19/5 11/23/5 12/25/5 10/21/5
f 11/23/6 13/27/6 14/29/6 12/25/6
f 13/27/7 15/31/7 16/33/7 14/29/7
f 15/31/8 17/35/8 18/37/8 16/33/8
f 17/35/9 19/39/9 20/41/9 18/37/9
f 19/39/10 21/43/10 22/45/10 20/41/10
f 21/43/11 23/47/11 24/49/11 22/45/11
f 23/47/12 25/51/12 26/53/12 24/49/12
f 25/51/13 27/55/13 28/57/13 26/53/13
f 27/55/14 29/59/14 30/61/14 28/57/14
f 29/59/15 31/63/15 32/65/15 30/61/15
f 31/63/16 33/67/16 34/69/16 32/65/16
f 33/67/17 35/71/17 36/73/17 34/69/17
f 35/71/18 37/75/18 38/77/18 36/73/18
f 37/75/19 39/79/19 40/81/19 38/77/19
f 39/79/20 41/83/20 42/85/20 40/81/20
f 41/83/21 43/87/21 44/89/21 42/85/21
f 43/87/22 45/91/22 46/93/22 44/89/22
f 45/91/23 47/95/23 48/97/23 46/93/23
f 47/95/24 49/99/24 50/101/24 48/97/24
f 49/99/25 51/103/25 52/105/25 50/101/25
f 51/103/26 53/107/26 54/109/26 52/105/26
f 53/107/27 55/111/27 56/113/27 54/109/27
f 55/111/28 57/115/28 58/117/28 56/113/28
f 57/115/29 59/119/29 60/121/29 58/117/29
f 59/119/30 61/123/30 62/126/30 60/121/30
f 4/10/31 6/14/31 8/18/31 10/22/31 12/26/31 14/30/31 16/34/31 18/38/31 20/42/31 22/46/31 24/50/31 26/54/31 28/58/31 30/62/31 32/66/31 34/70/31 36/74/31 38/78/31 40/82/31 42/86/31 44/90/31 46/94/31 48/98/31 50/102/31 52/106/31 54/110/31 56/114/31 58/118/31 60/122/31 62/125/31 64/129/31 2/5/31
f 61/123/32 63/127/32 64/130/32 62/126/32
f 63/127/33 1/2/33 2/6/33 64/130/33
f 1/3/34 63/128/34 61/124/34 59/120/34 57/116/34 55/112/34 53/108/34 51/104/34 49/100/34 47/96/34 45/92/34 43/88/34 41/84/34 39/80/34 37/76/34 35/72/34 33/68/34 31/64/34 29/60/34 27/56/34 25/52/34 23/48/34 21/44/34 19/40/34 17/36/34 15/32/34 13/28/34 11/24/34 9/20/34 7/16/34 5/12/34 3/8/34
o Cylinder.002
v 0.376720 1.544401 -8.388637
v 0.376721 1.544636 -8.592636
v 0.375306 1.544548 -8.388637
v 0.375308 1.544783 -8.592636
v 0.373949 1.544963 -8.388636
v 0.373951 1.545198 -8.592636
v 0.372700 1.545631 -8.388635
v 0.372702 1.545866 -8.592635
v 0.371608 1.546526 -8.388634
v 0.371609 1.546761 -8.592634
v 0.370714 1.547613 -8.388633
v 0.370715 1.547848 -8.592632
v 0.370053 1.548851 -8.388632
v 0.370054 1.549086 -8.592631
v 0.369649 1.550192 -8.388630
v 0.369651 1.550427 -8.592629
v 0.369520 1.551584 -8.388628
v 0.369521 1.551819 -8.592628
v 0.369669 1.552975 -8.388627
v 0.369671 1.553210 -8.592627
v 0.370091 1.554310 -8.388625
v 0.370093 1.554545 -8.592625
v 0.370770 1.555538 -8.388624
v 0.370771 1.555773 -8.592624
v 0.371679 1.556613 -8.388622
v 0.371680 1.556848 -8.592623
v 0.372784 1.557492 -8.388621
v 0.372785 1.557727 -8.592622
v 0.374042 1.558142 -8.388620
v 0.374043 1.558377 -8.592621
v 0.375405 1.558539 -8.388620
v 0.375406 1.558774 -8.592620
v 0.376820 1.558666 -8.388620
v 0.376821 1.558901 -8.592620
v 0.378233 1.558519 -8.388620
v 0.378235 1.558754 -8.592620
v 0.379590 1.558103 -8.388620
v 0.379592 1.558338 -8.592621
v 0.380839 1.557435 -8.388621
v 0.380841 1.557670 -8.592622
v 0.381932 1.556541 -8.388622
v 0.381933 1.556776 -8.592623
v 0.382826 1.555453 -8.388624
v 0.382827 1.555689 -8.592624
v 0.383487 1.554216 -8.388625
v 0.383488 1.554451 -8.592625
v 0.383890 1.552875 -8.388627
v 0.383892 1.553110 -8.592627
v 0.384019 1.551482 -8.388628
v 0.384021 1.551717 -8.592628
v 0.383870 1.550092 -8.388630
v 0.383872 1.550327 -8.592629
v 0.383448 1.548757 -8.388632
v 0.383450 1.548992 -8.592631
v 0.382770 1.547528 -8.388633
v 0.382771 1.547763 -8.592632
v 0.381861 1.546454 -8.388634
v 0.381862 1.546689 -8.592634
v 0.380756 1.545574 -8.388635
v 0.380757 1.545810 -8.592635
v 0.379498 1.544924 -8.388636
v 0.379499 1.545159 -8.592636
v 0.378135 1.544528 -8.388637
v 0.378136 1.544763 -8.592636
vn -0.1034 -0.9946 -0.0011
vn -0.2927 -0.9562 -0.0011
vn -0.4716 -0.8818 -0.0010
vn -0.6337 -0.7736 -0.0009
vn -0.7724 -0.6352 -0.0007
vn -0.8820 -0.4712 -0.0006
vn -0.9577 -0.2879 -0.0003
vn -0.9957 -0.0926 -0.0001
vn -0.9943 0.1066 0.0001
vn -0.9535 0.3014 0.0003
vn -0.8753 0.4836 0.0006
vn -0.7634 0.6460 0.0007
vn -0.6227 0.7825 0.0009
vn -0.4592 0.8883 0.0010
vn -0.2792 0.9602 0.0011
vn -0.0894 0.9960 0.0011
vn 0.1034 0.9946 0.0011
vn 0.2927 0.9562 0.0011
vn 0.4716 0.8818 0.0010
vn 0.6337 0.7736 0.0009
vn 0.7724 0.6352 0.0007
vn 0.8820 0.4712 0.0006
vn 0.9577 0.2879 0.0003
vn 0.9957 0.0926 0.0001
vn 0.9943 -0.1066 -0.0001
vn 0.9535 -0.3014 -0.0003
vn 0.8753 -0.4836 -0.0006
vn 0.7634 -0.6460 -0.0007
vn 0.6227 -0.7825 -0.0009
vn 0.4592 -0.8883 -0.0010
vn -0.0000 0.0012 -1.0000
vn 0.2792 -0.9602 -0.0011
vn 0.0894 -0.9960 -0.0011
vn -0.0000 -0.0012 1.0000
vt 1.000000 0.500000
vt 0.000000 0.500000
vt 0.750000 0.490000
vt 1.000000 1.000000
vt 0.250000 0.490000
vt 0.000000 1.000000
vt 0.968750 0.500000
vt 0.796822 0.485388
vt 0.968750 1.000000
vt 0.296822 0.485388
vt 0.937500 0.500000
vt 0.841844 0.471731
vt 0.937500 1.000000
vt 0.341844 0.471731
vt 0.906250 0.500000
vt 0.883337 0.449553
vt 0.906250 1.000000
vt 0.383337 0.449553
vt 0.875000 0.500000
vt 0.919706 0.419706
vt 0.875000 1.000000
vt 0.419706 0.419706
vt 0.843750 0.500000
vt 0.949553 0.383337
vt 0.843750 1.000000
vt 0.449553 0.383337
vt 0.812500 0.500000
vt 0.971731 0.341844
vt 0.812500 1.000000
vt 0.471731 0.341844
vt 0.781250 0.500000
vt 0.985388 0.296822
vt 0.781250 1.000000
vt 0.485388 0.296822
vt 0.750000 0.500000
vt 0.990000 0.250000
vt 0.750000 1.000000
vt 0.490000 0.250000
vt 0.718750 0.500000
vt 0.985388 0.203178
vt 0.718750 1.000000
vt 0.485388 0.203178
vt 0.687500 0.500000
vt 0.971731 0.158156
vt 0.687500 1.000000
vt 0.471731 0.158156
vt 0.656250 0.500000
vt 0.949553 0.116663
vt 0.656250 1.000000
vt 0.449553 0.116663
vt 0.625000 0.500000
vt 0.919706 0.080294
vt 0.625000 1.000000
vt 0.419706 0.080294
vt 0.593750 0.500000
vt 0.883337 0.050447
vt 0.593750 1.000000
vt 0.383337 0.050447
vt 0.562500 0.500000
vt 0.841844 0.028269
vt 0.562500 1.000000
vt 0.341844 0.028269
vt 0.531250 0.500000
vt 0.796822 0.014612
vt 0.531250 1.000000
vt 0.296822 0.014612
vt 0.500000 0.500000
vt 0.750000 0.010000
vt 0.500000 1.000000
vt 0.250000 0.010000
vt 0.468750 0.500000
vt 0.703178 0.014612
vt 0.468750 1.000000
vt 0.203178 0.014612
vt 0.437500 0.500000
vt 0.658156 0.028269
vt 0.437500 1.000000
vt 0.158156 0.028269
vt 0.406250 0.500000
vt 0.616663 0.050447
vt 0.406250 1.000000
vt 0.116663 0.050447
vt 0.375000 0.500000
vt 0.580294 0.080294
vt 0.375000 1.000000
vt 0.080294 0.080294
vt 0.343750 0.500000
vt 0.550447 0.116663
vt 0.343750 1.000000
vt 0.050447 0.116663
vt 0.312500 0.500000
vt 0.528269 0.158156
vt 0.312500 1.000000
vt 0.028269 0.158156
vt 0.281250 0.500000
vt 0.514612 0.203178
vt 0.281250 1.000000
vt 0.014612 0.203178
vt 0.250000 0.500000
vt 0.510000 0.250000
vt 0.250000 1.000000
vt 0.010000 0.250000
vt 0.218750 0.500000
vt 0.514612 0.296822
vt 0.218750 1.000000
vt 0.014612 0.296822
vt 0.187500 0.500000
vt 0.528269 0.341844
vt 0.187500 1.000000
vt 0.028269 0.341844
vt 0.156250 0.500000
vt 0.550447 0.383337
vt 0.156250 1.000000
vt 0.050447 0.383337
vt 0.125000 0.500000
vt 0.580294 0.419706
vt 0.125000 1.000000
vt 0.080294 0.419706
vt 0.093750 0.500000
vt 0.616663 0.449553
vt 0.093750 1.000000
vt 0.116663 0.449553
vt 0.062500 0.500000
vt 0.658156 0.471731
vt 0.158156 0.471731
vt 0.062500 1.000000
vt 0.031250 0.500000
vt 0.703178 0.485388
vt 0.203178 0.485388
vt 0.031250 1.000000
s 0
usemtl Material.010
f 65/131/35 67/137/35 68/139/35 66/134/35
f 67/137/36 69/141/36 70/143/36 68/139/36
f 69/141/37 71/145/37 72/147/37 70/143/37
f 71/145/38 73/149/38 74/151/38 72/147/38
f 73/149/39 75/153/39 76/155/39 74/151/39
f 75/153/40 77/157/40 78/159/40 76/155/40
f 77/157/41 79/161/41 80/163/41 78/159/41
f 79/161/42 81/165/42 82/167/42 80/163/42
f 81/165/43 83/169/43 84/171/43 82/167/43
f 83/169/44 85/173/44 86/175/44 84/171/44
f 85/173/45 87/177/45 88/179/45 86/175/45
f 87/177/46 89/181/46 90/183/46 88/179/46
f 89/181/47 91/185/47 92/187/47 90/183/47
f 91/185/48 93/189/48 94/191/48 92/187/48
f 93/189/49 95/193/49 96/195/49 94/191/49
f 95/193/50 97/197/50 98/199/50 96/195/50
f 97/197/51 99/201/51 100/203/51 98/199/51
f 99/201/52 101/205/52 102/207/52 100/203/52
f 101/205/53 103/209/53 104/211/53 102/207/53
f 103/209/54 105/213/54 106/215/54 104/211/54
f 105/213/55 107/217/55 108/219/55 106/215/55
f 107/217/56 109/221/56 110/223/56 108/219/56
f 109/221/57 111/225/57 112/227/57 110/223/57
f 111/225/58 113/229/58 114/231/58 112/227/58
f 113/229/59 115/233/59 116/235/59 114/231/59
f 115/233/60 117/237/60 118/239/60 116/235/60
f 117/237/61 119/241/61 120/243/61 118/239/61
f 119/241/62 121/245/62 122/247/62 120/243/62
f 121/245/63 123/249/63 124/251/63 122/247/63
f 123/249/64 125/253/64 126/256/64 124/251/64
f 68/140/65 70/144/65 72/148/65 74/152/65 76/156/65 78/160/65 80/164/65 82/168/65 84/172/65 86/176/65 88/180/65 90/184/65 92/188/65 94/192/65 96/196/65 98/200/65 100/204/65 102/208/65 104/212/65 106/216/65 108/220/65 110/224/65 112/228/65 114/232/65 116/236/65 118/240/65 120/244/65 122/248/65 124/252/65 126/255/65 128/259/65 66/135/65
f 125/253/66 127/257/66 128/260/66 126/256/66
f 127/257/67 65/132/67 66/136/67 128/260/67
f 65/133/68 127/258/68 125/254/68 123/250/68 121/246/68 119/242/68 117/238/68 115/234/68 113/230/68 111/226/68 109/222/68 107/218/68 105/214/68 103/210/68 101/206/68 99/202/68 97/198/68 95/194/68 93/190/68 91/186/68 89/182/68 87/178/68 85/174/68 83/170/68 81/166/68 79/162/68 77/158/68 75/154/68 73/150/68 71/146/68 69/142/68 67/138/68
