# Blender 3.4.1
# www.blender.org
mtllib transporter_window.mtl
o Shuttle.000_Cube.002
v -0.135992 0.625810 0.028814
v -0.449150 0.613900 0.024991
v -0.522235 0.531634 0.064991
v -0.146108 0.532667 0.073597
v -0.593040 0.604029 -0.216471
v -0.686209 0.529274 -0.201450
v -0.533435 0.530427 0.060217
v -0.456716 0.613398 0.020281
v -0.689482 0.529029 -0.212516
v -0.595340 0.604017 -0.225364
v -0.587703 0.610277 -0.226894
v -0.477869 0.693538 -0.252135
v -0.469417 0.697553 -0.253356
v -0.191278 0.764056 -0.272808
v -0.466510 0.697678 -0.243359
v -0.379542 0.699601 -0.077089
v -0.155346 0.757478 -0.095584
v -0.189163 0.763744 -0.261125
v -0.153611 0.753888 -0.086802
v -0.379384 0.696146 -0.069187
v -0.442395 0.621770 0.018268
v -0.135078 0.634492 0.022656
v -0.451063 0.620597 0.014005
v -0.386863 0.695526 -0.073608
v -0.475601 0.693577 -0.242686
v -0.585257 0.610392 -0.217910
v -0.179853 0.765360 -0.273210
v 0.138263 0.762524 -0.273378
v -0.144064 0.758761 -0.096137
v 0.138623 0.760049 -0.113127
v 0.138275 0.762443 -0.262528
v -0.176857 0.765092 -0.261181
v 0.138763 0.646126 0.024247
v 0.138635 0.757144 -0.105470
v -0.142473 0.755340 -0.087497
v -0.123618 0.635051 0.023075
v 0.138763 0.639109 0.029274
v -0.124356 0.626661 0.029114
v -0.132495 0.532894 0.073632
v 0.138443 0.532303 0.075255
v -0.136248 0.627863 0.032579
v -0.449406 0.615952 0.028756
v -0.522491 0.533686 0.068756
v -0.146364 0.534719 0.077362
v -0.595659 0.607093 -0.214987
v -0.688829 0.532338 -0.199965
v -0.536056 0.533491 0.061702
v -0.459336 0.616462 0.021765
v -0.692352 0.532226 -0.212529
v -0.598210 0.607213 -0.225377
v -0.590300 0.613699 -0.226908
v -0.480466 0.696959 -0.252149
v -0.470417 0.701731 -0.253373
v -0.192278 0.768234 -0.272825
v -0.467441 0.701840 -0.242844
v -0.380473 0.703763 -0.076574
v -0.156277 0.761640 -0.095069
v -0.190094 0.767906 -0.260610
v -0.154111 0.757136 -0.084034
v -0.379884 0.699393 -0.066419
v -0.442894 0.625017 0.021035
v -0.135578 0.637740 0.025423
v -0.453421 0.623965 0.015253
v -0.389220 0.698894 -0.072360
v -0.477958 0.696944 -0.241438
v -0.587614 0.613760 -0.216662
v -0.179815 0.769655 -0.273227
v 0.138301 0.766820 -0.273395
v -0.144055 0.763055 -0.096012
v 0.138633 0.764343 -0.113002
v 0.138285 0.766737 -0.262402
v -0.176848 0.769386 -0.261056
v 0.138747 0.649393 0.027037
v 0.138619 0.760411 -0.102681
v -0.142490 0.758608 -0.084708
v -0.123635 0.638319 0.025864
v 0.138748 0.640681 0.033272
v -0.124372 0.628233 0.033113
v -0.132510 0.534465 0.077630
v 0.138427 0.533874 0.079253
v -0.135838 0.622855 -0.722744
v -0.448998 0.610975 -0.718955
v -0.522067 0.528396 -0.758336
v -0.145936 0.529362 -0.766797
v -0.592986 0.603003 -0.477481
v -0.686149 0.528132 -0.491952
v -0.533269 0.527228 -0.753558
v -0.456566 0.610510 -0.714244
v -0.689427 0.527974 -0.480886
v -0.595290 0.603060 -0.468589
v -0.587653 0.609332 -0.467106
v -0.477830 0.692789 -0.442476
v -0.469379 0.696814 -0.441283
v -0.191247 0.763468 -0.422240
v -0.466468 0.696860 -0.451279
v -0.379431 0.697476 -0.617523
v -0.155243 0.755497 -0.599393
v -0.189128 0.763064 -0.433920
v -0.153505 0.751839 -0.608146
v -0.379271 0.693959 -0.625398
v -0.442245 0.618897 -0.712291
v -0.134927 0.631585 -0.716653
v -0.450916 0.617758 -0.708023
v -0.386751 0.693374 -0.620976
v -0.475559 0.692754 -0.451923
v -0.585205 0.609377 -0.476089
v -0.179823 0.764775 -0.421844
v 0.138294 0.761942 -0.421524
v -0.143962 0.756784 -0.598845
v 0.138719 0.758207 -0.581750
v 0.138310 0.761775 -0.432373
v -0.176822 0.764413 -0.433869
v 0.138915 0.643206 -0.718225
v 0.138734 0.755241 -0.589384
v -0.142367 0.753296 -0.607457
v -0.123467 0.632141 -0.717072
v 0.138917 0.636150 -0.723195
v -0.124203 0.623704 -0.723046
v -0.132323 0.529589 -0.766828
v 0.138615 0.528985 -0.768336
v -0.136093 0.624878 -0.726525
v -0.449253 0.612997 -0.722736
v -0.522322 0.530419 -0.762118
v -0.146191 0.531385 -0.770578
v -0.595606 0.606055 -0.478990
v -0.688769 0.531184 -0.493462
v -0.535889 0.530280 -0.755068
v -0.459185 0.613562 -0.715753
v -0.692298 0.531170 -0.480899
v -0.598160 0.606256 -0.468602
v -0.590250 0.612754 -0.467120
v -0.480427 0.696211 -0.442490
v -0.470379 0.700992 -0.441299
v -0.192247 0.767646 -0.422257
v -0.467398 0.701019 -0.451827
v -0.380362 0.701634 -0.618072
v -0.156174 0.759655 -0.599941
v -0.190059 0.767222 -0.434468
v -0.154003 0.755064 -0.610939
v -0.379770 0.697184 -0.628192
v -0.442744 0.622122 -0.715084
v -0.135426 0.634811 -0.719447
v -0.453272 0.621116 -0.709298
v -0.389107 0.696732 -0.622251
v -0.477915 0.696112 -0.453198
v -0.587561 0.612735 -0.477364
v -0.179785 0.769071 -0.421861
v 0.138332 0.766237 -0.421540
v -0.143952 0.761077 -0.599004
v 0.138729 0.762500 -0.581909
v 0.138320 0.766068 -0.432532
v -0.176812 0.768705 -0.434028
v 0.138900 0.646452 -0.721039
v 0.138719 0.758486 -0.592199
v -0.142383 0.756541 -0.610272
v -0.123482 0.635386 -0.719887
v 0.138903 0.637690 -0.727206
v -0.124217 0.625244 -0.727056
v -0.132337 0.531129 -0.770838
v 0.138601 0.530526 -0.772346
v -0.689455 0.528502 -0.346701
v -0.595315 0.603538 -0.346977
v -0.587678 0.609804 -0.347000
v -0.477849 0.693163 -0.347305
v -0.469398 0.697183 -0.347319
v -0.191263 0.763762 -0.347524
v 0.138279 0.762233 -0.347451
v -0.179838 0.765067 -0.347527
v -0.692325 0.531698 -0.346714
v -0.598185 0.606735 -0.346990
v -0.590275 0.613226 -0.347014
v -0.480446 0.696585 -0.347319
v -0.470398 0.701361 -0.347336
v -0.192263 0.767940 -0.347541
v 0.138316 0.766529 -0.347468
v -0.179800 0.769363 -0.347544
v -0.556147 0.487731 -0.800859
v -0.557283 0.463471 -0.812719
v -0.652470 0.484351 -0.664340
v -0.657359 0.456636 -0.674007
v -0.657493 0.459213 -0.018827
v -0.652600 0.486850 -0.028710
v -0.557474 0.467139 0.119868
v -0.556332 0.491305 0.107818
v 0.817250 0.653810 0.027770
v 0.549402 0.653765 0.027716
v 0.549409 0.762389 -0.097357
v 0.817257 0.762435 -0.097302
v 0.549411 0.769496 -0.115537
v 0.549441 0.768924 -0.261023
v 0.817290 0.768969 -0.260969
v 0.817260 0.769541 -0.115482
v 0.817325 0.768290 -0.433706
v 0.549476 0.768245 -0.433761
v 0.549506 0.767673 -0.579247
v 0.817355 0.767718 -0.579192
v 0.549511 0.760423 -0.597370
v 0.549555 0.650819 -0.721585
v 0.817403 0.650864 -0.721531
v 0.817360 0.760469 -0.597316
v 1.135379 0.760522 -0.597251
v 1.135423 0.650918 -0.721466
v 1.403271 0.650963 -0.721411
v 1.403228 0.760568 -0.597197
v 1.135345 0.768344 -0.433641
v 1.135374 0.767772 -0.579128
v 1.403118 0.653909 0.027890
v 1.135270 0.653864 0.027835
v 1.135277 0.762489 -0.097237
v 1.403126 0.762534 -0.097183
v 1.403128 0.769640 -0.115363
v 1.135280 0.769595 -0.115417
v 1.403223 0.767817 -0.579073
v 1.403193 0.768389 -0.433587
v 1.135309 0.769023 -0.260904
v 1.403157 0.769068 -0.260849
v 1.135310 0.766636 -0.260895
v 1.135280 0.767208 -0.115408
v 1.135278 0.760687 -0.098802
v 1.135270 0.652062 0.026270
v 1.403119 0.652107 0.026325
v 1.403126 0.760732 -0.098748
v 1.135375 0.765385 -0.579118
v 1.135345 0.765957 -0.433632
v 1.403271 0.649173 -0.719832
v 1.135423 0.649128 -0.719887
v 1.135379 0.758733 -0.595672
v 1.403228 0.758778 -0.595618
v 0.817403 0.649074 -0.719952
v 0.549555 0.649029 -0.720006
v 0.549511 0.758634 -0.595791
v 0.817360 0.758679 -0.595737
v 0.549506 0.765286 -0.579237
v 0.549477 0.765858 -0.433751
v 0.817325 0.765903 -0.433697
v 0.817355 0.765331 -0.579183
v 0.817290 0.766582 -0.260959
v 0.549442 0.766537 -0.261014
v 0.549412 0.767109 -0.115527
v 0.817261 0.767155 -0.115473
v 0.549410 0.760588 -0.098922
v 0.549402 0.651963 0.026151
v 0.817251 0.652008 0.026206
v 0.817258 0.760633 -0.098867
v 1.403128 0.767254 -0.115353
v 1.403158 0.766682 -0.260840
v 1.403223 0.765430 -0.579064
v 1.403193 0.766002 -0.433577
v 0.852602 0.777440 -0.251719
v 1.099990 0.777482 -0.251669
v 1.099968 0.909615 -0.252189
v 0.852580 0.909574 -0.252238
v 1.099963 0.927799 -0.244931
v 1.099920 1.055233 -0.134255
v 0.852532 1.055192 -0.134305
v 0.852575 0.927757 -0.244980
v 0.852532 1.053627 -0.132503
v 1.099920 1.053668 -0.132453
v 1.099963 0.926234 -0.243129
v 0.852575 0.926192 -0.243178
v 1.099967 0.909625 -0.249802
v 1.099990 0.777491 -0.249283
v 0.852602 0.777450 -0.249332
v 0.852580 0.909583 -0.249851
v 0.852641 0.776688 -0.443008
v 1.100029 0.776730 -0.442958
v 1.100007 0.908863 -0.443477
v 0.852619 0.908821 -0.443527
v 1.100005 0.926989 -0.450878
v 1.100007 1.053549 -0.562552
v 0.852619 1.053508 -0.562603
v 0.852618 0.926948 -0.450928
v 0.852619 1.051928 -0.564392
v 1.100008 1.051970 -0.564342
v 1.100006 0.925410 -0.452668
v 0.852618 0.925368 -0.452718
v 1.100007 0.908854 -0.445864
v 1.100029 0.776720 -0.445344
v 0.852642 0.776678 -0.445394
v 0.852619 0.908812 -0.445914
vn -0.0089 -1.0000 0.0039
vn -0.0031 -0.9996 -0.0274
vn -0.0044 -0.7206 -0.6933
vn 0.0122 -0.4117 -0.9113
vn -0.0245 0.4444 0.8955
vn 0.0780 -0.7193 -0.6903
vn 0.2321 -0.9678 -0.0972
vn 0.5421 -0.7932 -0.2773
vn 0.5853 -0.7433 -0.3238
vn 0.6046 -0.7965 0.0033
vn 0.2328 -0.9725 0.0039
vn 0.0089 1.0000 -0.0039
vn 0.0031 0.9996 0.0274
vn 0.0044 0.7206 0.6933
vn -0.0122 0.4117 0.9113
vn -0.0780 0.7193 0.6903
vn -0.2321 0.9678 0.0972
vn -0.5421 0.7932 0.2773
vn -0.5853 0.7433 0.3238
vn -0.0275 0.8769 -0.4799
vn -0.7790 0.5267 -0.3401
vn -0.0085 -0.8782 0.4782
vn 0.9932 -0.0597 0.1001
vn -0.3043 0.1918 -0.9330
vn -0.6146 -0.7009 0.3619
vn 0.4769 -0.0179 0.8788
vn 0.6060 0.7007 -0.3767
vn 0.0772 0.0734 0.9943
vn 0.7441 0.6681 -0.0025
vn 0.1415 0.1115 0.9836
vn 0.7965 0.6046 -0.0022
vn 0.0651 0.0196 0.9977
vn 0.9725 0.2328 -0.0007
vn -0.8573 -0.2476 0.4513
vn 0.1071 -0.0986 0.9894
vn 0.9537 0.2363 -0.1859
vn -0.0880 0.1030 -0.9908
vn -0.2162 0.6139 -0.7592
vn -0.8721 0.2327 -0.4305
vn 0.0159 -0.6472 0.7622
vn 0.9883 0.1527 -0.0007
vn 0.6855 0.2230 0.6930
vn 0.6912 0.6208 -0.3699
vn -0.3117 0.1306 -0.9412
vn -0.6670 -0.6199 0.4132
vn 0.0006 0.0039 1.0000
vn 1.0000 -0.0088 0.0002
vn 0.0601 -0.0292 0.9978
vn 1.0000 -0.0022 -0.0024
vn -0.0040 0.0291 -0.9996
vn -0.9808 -0.0034 0.1948
vn 1.0000 0.0034 0.0019
vn -0.0527 0.6482 -0.7597
vn -0.9934 -0.0776 0.0850
vn 0.0240 -0.6490 0.7604
vn -0.0438 0.9297 -0.3657
vn -0.9969 0.0713 -0.0320
vn -0.0042 -0.9307 0.3658
vn 1.0000 -0.0011 0.0044
vn -1.0000 0.0088 -0.0002
vn -0.9725 -0.2328 0.0007
vn -0.7966 -0.6046 0.0022
vn -0.7440 -0.6681 0.0025
vn -0.2328 0.9725 -0.0039
vn -0.6046 0.7965 -0.0033
vn -0.6233 0.7820 -0.0032
vn 0.6233 -0.7820 0.0032
vn 0.0245 -0.4444 -0.8955
vn -0.0031 -0.9994 0.0353
vn -0.0046 -0.7151 0.6990
vn 0.0118 -0.4045 0.9145
vn -0.0241 0.4374 -0.8990
vn 0.0777 -0.7139 0.6959
vn 0.2321 -0.9670 0.1049
vn 0.5420 -0.7910 0.2838
vn 0.5852 -0.7407 0.3299
vn 0.0031 0.9994 -0.0353
vn 0.0046 0.7151 -0.6990
vn -0.0118 0.4045 -0.9145
vn -0.0777 0.7139 -0.6959
vn -0.2321 0.9670 -0.1049
vn -0.5420 0.7910 -0.2838
vn -0.5852 0.7407 -0.3299
vn -0.0277 0.8806 0.4730
vn -0.7792 0.5294 0.3356
vn -0.0083 -0.8820 -0.4712
vn 0.9932 -0.0605 -0.0992
vn -0.3047 0.1991 0.9314
vn -0.6144 -0.7038 -0.3566
vn 0.4772 -0.0249 -0.8784
vn 0.6058 0.7036 0.3714
vn 0.0776 0.0656 -0.9948
vn 0.7440 0.6682 -0.0025
vn 0.1420 0.1037 -0.9844
vn 0.7966 0.6046 -0.0022
vn 0.0655 0.0117 -0.9978
vn -0.8571 -0.2512 -0.4497
vn 0.1075 -0.1063 -0.9885
vn 0.9537 0.2378 0.1844
vn -0.0884 0.1108 0.9899
vn -0.2165 0.6198 0.7543
vn -0.8723 0.2360 0.4283
vn 0.0162 -0.6532 -0.7571
vn 0.9883 0.1527 -0.0001
vn 0.6858 0.2175 -0.6945
vn 0.6911 0.6237 0.3653
vn -0.3121 0.1380 0.9400
vn -0.6669 -0.6232 -0.4086
vn 0.0010 -0.0040 -1.0000
vn 0.0605 -0.0371 -0.9975
vn 1.0000 -0.0022 0.0028
vn -0.0044 0.0370 0.9993
vn -0.9808 -0.0050 -0.1951
vn 1.0000 0.0034 -0.0016
vn -0.0530 0.6541 0.7545
vn -0.9933 -0.0782 -0.0848
vn 0.0243 -0.6549 -0.7553
vn -0.0439 0.9326 0.3583
vn -0.9970 0.0716 0.0310
vn -0.0041 -0.9335 -0.3584
vn 1.0000 -0.0012 -0.0039
vn 0.0241 -0.4374 0.8990
vn -0.7780 0.3153 -0.5435
vn -0.7782 0.3195 0.5406
vn -0.0000 0.7498 -0.6616
vn -0.0002 1.0000 -0.0039
vn -0.0003 0.7550 0.6557
vn 0.0003 -0.7550 -0.6557
vn 0.0002 -1.0000 0.0039
vn -0.0000 -0.7498 0.6616
vn -0.0000 0.6557 -0.7550
vn 0.0002 -0.0039 -1.0000
vn -0.0003 0.6616 0.7498
vn -0.0002 0.0039 1.0000
vn -0.0000 -0.6557 0.7550
vn 0.0003 -0.6616 -0.7498
vt 0.000000 0.000000
vt 0.000000 0.000000
vt 0.000000 0.000000
vt 0.000000 0.000000
vt 0.000000 0.000000
vt 0.000000 0.000000
vt 0.000000 0.000000
vt 0.000000 0.000000
vt 0.000000 0.000000
vt 0.000000 0.000000
vt 0.000000 0.000000
vt 0.000000 0.000000
vt 0.000000 0.000000
vt 0.000000 0.000000
vt 0.000000 0.000000
vt 0.000000 0.000000
vt 0.000000 0.000000
vt 0.000000 0.000000
vt 0.000000 0.000000
vt 0.000000 0.000000
vt 0.000000 0.000000
vt 0.000000 0.000000
vt 0.000000 0.000000
vt 0.000000 0.000000
vt 0.000000 0.000000
vt 0.000000 0.000000
vt 0.000000 0.000000
vt 0.000000 0.000000
vt 0.000000 0.000000
vt 0.000000 0.000000
vt 0.000000 0.000000
vt 0.000000 0.000000
vt 0.000000 0.000000
vt 0.000000 0.000000
vt 0.000000 0.000000
vt 0.000000 0.000000
vt 0.000000 0.000000
vt 0.000000 0.000000
vt 0.000000 0.000000
vt 0.000000 0.000000
vt 0.000000 0.000000
vt 0.000000 0.000000
vt 0.000000 0.000000
vt 0.000000 0.000000
vt 0.000000 0.000000
vt 0.000000 0.000000
vt 0.000000 0.000000
vt 0.000000 0.000000
vt 0.000000 0.000000
vt 0.000000 0.000000
vt 0.000000 0.000000
vt 0.000000 0.000000
vt 0.000000 0.000000
vt 0.000000 0.000000
vt 0.000000 0.000000
vt 0.000000 0.000000
vt 0.000000 0.000000
vt 0.000000 0.000000
vt 0.000000 0.000000
vt 0.000000 0.000000
vt 0.000000 0.000000
vt 0.000000 0.000000
vt 0.000000 0.000000
vt 0.000000 0.000000
vt 0.000000 0.000000
vt 0.000000 0.000000
vt 0.000000 0.000000
vt 0.000000 0.000000
vt 0.000000 0.000000
vt 0.000000 0.000000
vt 0.000000 0.000000
vt 0.000000 0.000000
vt 0.000000 0.000000
vt 0.000000 0.000000
vt 0.000000 0.000000
vt 0.000000 0.000000
vt 0.000000 0.000000
vt 0.000000 0.000000
vt 0.000000 0.000000
vt 0.000000 0.000000
vt 0.000000 0.000000
vt 0.000000 0.000000
vt 0.000000 0.000000
vt 0.000000 0.000000
vt 0.000000 0.000000
vt 0.000000 0.000000
vt 0.000000 0.000000
vt 0.000000 0.000000
vt 0.000000 0.000000
vt 0.000000 0.000000
vt 0.000000 0.000000
vt 0.000000 0.000000
vt 0.000000 0.000000
vt 0.000000 0.000000
vt 0.000000 0.000000
vt 0.000000 0.000000
vt 0.000000 0.000000
vt 0.000000 0.000000
vt 0.000000 0.000000
vt 0.000000 0.000000
vt 0.000000 0.000000
vt 0.000000 0.000000
vt 0.000000 0.000000
vt 0.000000 0.000000
vt 0.000000 0.000000
vt 0.000000 0.000000
vt 0.000000 0.000000
vt 0.000000 0.000000
vt 0.000000 0.000000
vt 0.000000 0.000000
vt 0.000000 0.000000
vt 0.000000 0.000000
vt 0.000000 0.000000
vt 0.000000 0.000000
vt 0.000000 0.000000
vt 0.000000 0.000000
vt 0.000000 0.000000
vt 0.000000 0.000000
vt 0.000000 0.000000
vt 0.000000 0.000000
vt 0.000000 0.000000
vt 0.000000 0.000000
vt 0.000000 0.000000
vt 0.000000 0.000000
vt 0.000000 0.000000
vt 0.000000 0.000000
vt 0.000000 0.000000
vt 0.000000 0.000000
vt 0.000000 0.000000
vt 0.000000 0.000000
vt 0.000000 0.000000
vt 0.000000 0.000000
vt 0.000000 0.000000
vt 0.000000 0.000000
vt 0.000000 0.000000
vt 0.000000 0.000000
vt 0.000000 0.000000
vt 0.000000 0.000000
vt 0.000000 0.000000
vt 0.000000 0.000000
vt 0.000000 0.000000
vt 0.000000 0.000000
vt 0.000000 0.000000
vt 0.000000 0.000000
vt 0.000000 0.000000
vt 0.000000 0.000000
vt 0.000000 0.000000
vt 0.000000 0.000000
vt 0.000000 0.000000
vt 0.000000 0.000000
vt 0.000000 0.000000
vt 0.000000 0.000000
vt 0.000000 0.000000
vt 0.000000 0.000000
vt 0.000000 0.000000
vt 0.000000 0.000000
vt 0.000000 0.000000
vt 0.000000 0.000000
vt 0.000000 0.000000
vt 0.000000 0.000000
vt 0.000000 0.000000
vt 0.000000 0.000000
vt 0.000000 0.000000
vt 0.000000 0.000000
vt 0.000000 0.000000
vt 0.000000 0.000000
vt 0.000000 0.000000
vt 0.000000 0.000000
vt 0.000000 0.000000
vt 0.000000 0.000000
vt 0.000000 0.000000
vt 0.000000 0.000000
vt 0.000000 0.000000
vt 0.000000 0.000000
vt 0.000000 0.000000
vt 0.000000 0.000000
vt 0.000000 0.000000
vt 0.000000 0.000000
vt 0.000000 0.000000
vt 0.000000 0.000000
vt 0.000000 0.000000
vt 0.000000 0.000000
vt 0.000000 0.000000
vt 0.000000 0.000000
vt 0.000000 0.000000
vt 0.000000 0.000000
vt 0.000000 0.000000
vt 0.000000 0.000000
vt 0.000000 0.000000
vt 0.000000 0.000000
vt 0.000000 0.000000
vt 0.000000 0.000000
vt 0.000000 0.000000
vt 0.000000 0.000000
vt 0.000000 0.000000
vt 0.000000 0.000000
vt 0.000000 0.000000
vt 0.000000 0.000000
vt 0.000000 0.000000
vt 0.000000 0.000000
vt 0.000000 0.000000
vt 0.000000 0.000000
vt 0.000000 0.000000
vt 0.000000 0.000000
vt 0.000000 0.000000
vt 0.000000 0.000000
vt 0.000000 0.000000
vt 0.000000 0.000000
vt 0.000000 0.000000
vt 0.000000 0.000000
vt 0.000000 0.000000
vt 0.000000 0.000000
vt 0.000000 0.000000
vt 0.000000 0.000000
vt 0.000000 0.000000
vt 0.000000 0.000000
vt 0.000000 0.000000
vt 0.000000 0.000000
vt 0.000000 0.000000
vt 0.000000 0.000000
vt 0.000000 0.000000
vt 0.000000 0.000000
vt 0.000000 0.000000
vt 0.000000 0.000000
vt 0.000000 0.000000
vt 0.000000 0.000000
vt 0.000000 0.000000
vt 0.000000 0.000000
vt 0.000000 0.000000
vt 0.000000 0.000000
vt 0.000000 0.000000
vt 0.000000 0.000000
vt 0.000000 0.000000
vt 0.000000 0.000000
vt 0.000000 0.000000
vt 0.000000 0.000000
vt 0.000000 0.000000
vt 0.000000 0.000000
vt 0.000000 0.000000
vt 0.000000 0.000000
vt 0.000000 0.000000
vt 0.000000 0.000000
vt 0.000000 0.000000
vt 0.000000 0.000000
vt 0.000000 0.000000
vt 0.000000 0.000000
vt 0.000000 0.000000
vt 0.000000 0.000000
vt 0.000000 0.000000
vt 0.000000 0.000000
vt 0.000000 0.000000
vt 0.000000 0.000000
vt 0.000000 0.000000
vt 0.000000 0.000000
vt 0.000000 0.000000
vt 0.000000 0.000000
vt 0.000000 0.000000
vt 0.000000 0.000000
vt 0.000000 0.000000
vt 0.000000 0.000000
vt 0.000000 0.000000
vt 0.000000 0.000000
vt 0.000000 0.000000
vt 0.000000 0.000000
vt 0.000000 0.000000
vt 0.000000 0.000000
vt 0.000000 0.000000
vt 0.000000 0.000000
vt 0.000000 0.000000
vt 0.000000 0.000000
vt 0.000000 0.000000
vt 0.000000 0.000000
vt 0.000000 0.000000
vt 0.000000 0.000000
vt 0.000000 0.000000
vt 0.000000 0.000000
vt 0.000000 0.000000
vt 0.000000 0.000000
vt 0.000000 0.000000
vt 0.000000 0.000000
s 0
usemtl Glass.001
f 168/168/1 167/167/1 28/28/1 27/27/1
f 32/32/2 31/31/2 30/30/2 29/29/2
f 36/36/3 35/35/3 34/34/3 33/33/3
f 40/40/4 39/39/4 38/38/4 37/37/4
f 44/44/5 41/41/5 42/42/5 43/43/5
f 22/22/6 21/21/6 20/20/6 19/19/6
f 18/18/7 17/17/7 16/16/7 15/15/7
f 26/26/8 25/25/8 24/24/8 23/23/8
f 8/8/9 7/7/9 6/6/9 5/5/9
f 164/164/10 12/12/10 11/11/10 163/163/10
f 166/166/11 14/14/11 13/13/11 165/165/11
f 175/175/12 176/176/12 67/67/12 68/68/12
f 71/71/13 72/72/13 69/69/13 70/70/13
f 75/75/14 76/76/14 73/73/14 74/74/14
f 79/79/15 80/80/15 77/77/15 78/78/15
f 61/61/16 62/62/16 59/59/16 60/60/16
f 57/57/17 58/58/17 55/55/17 56/56/17
f 65/65/18 66/66/18 63/63/18 64/64/18
f 47/47/19 48/48/19 45/45/19 46/46/19
f 2/2/20 42/42/20 41/41/20 1/1/20
f 3/3/21 43/43/21 42/42/21 2/2/21
f 4/4/22 44/44/22 43/43/22 3/3/22
f 1/1/23 41/41/23 44/44/23 4/4/23
f 6/6/24 46/46/24 45/45/24 5/5/24
f 7/7/25 47/47/25 46/46/25 6/6/25
f 8/8/26 48/48/26 47/47/26 7/7/26
f 5/5/27 45/45/27 48/48/27 8/8/27
f 10/10/28 50/50/28 49/49/28 9/9/28
f 162/162/29 170/170/29 50/50/29 10/10/29
f 12/12/30 52/52/30 51/51/30 11/11/30
f 164/164/31 172/172/31 52/52/31 12/12/31
f 14/14/32 54/54/32 53/53/32 13/13/32
f 166/166/33 174/174/33 54/54/33 14/14/33
f 16/16/34 56/56/34 55/55/34 15/15/34
f 17/17/35 57/57/35 56/56/35 16/16/35
f 18/18/36 58/58/36 57/57/36 17/17/36
f 15/15/37 55/55/37 58/58/37 18/18/37
f 20/20/38 60/60/38 59/59/38 19/19/38
f 21/21/39 61/61/39 60/60/39 20/20/39
f 22/22/40 62/62/40 61/61/40 21/21/40
f 19/19/41 59/59/41 62/62/41 22/22/41
f 24/24/42 64/64/42 63/63/42 23/23/42
f 25/25/43 65/65/43 64/64/43 24/24/43
f 26/26/44 66/66/44 65/65/44 25/25/44
f 23/23/45 63/63/45 66/66/45 26/26/45
f 28/28/46 68/68/46 67/67/46 27/27/46
f 167/167/47 175/175/47 68/68/47 28/28/47
f 30/30/48 70/70/48 69/69/48 29/29/48
f 31/31/49 71/71/49 70/70/49 30/30/49
f 32/32/50 72/72/50 71/71/50 31/31/50
f 29/29/51 69/69/51 72/72/51 32/32/51
f 34/34/52 74/74/52 73/73/52 33/33/52
f 35/35/53 75/75/53 74/74/53 34/34/53
f 36/36/54 76/76/54 75/75/54 35/35/54
f 33/33/55 73/73/55 76/76/55 36/36/55
f 38/38/56 78/78/56 77/77/56 37/37/56
f 39/39/57 79/79/57 78/78/57 38/38/57
f 40/40/58 80/80/58 79/79/58 39/39/58
f 37/37/59 77/77/59 80/80/59 40/40/59
f 27/27/60 67/67/60 176/176/60 168/168/60
f 13/13/61 53/53/61 173/173/61 165/165/61
f 11/11/62 51/51/62 171/171/62 163/163/62
f 9/9/63 49/49/63 169/169/63 161/161/63
f 54/54/64 174/174/64 173/173/64 53/53/64
f 52/52/65 172/172/65 171/171/65 51/51/65
f 49/49/66 50/50/66 170/170/66 169/169/66
f 10/10/67 9/9/67 161/161/67 162/162/67
f 4/4/68 3/3/68 2/2/68 1/1/68
f 168/168/1 107/107/1 108/108/1 167/167/1
f 112/112/69 109/109/69 110/110/69 111/111/69
f 116/116/70 113/113/70 114/114/70 115/115/70
f 120/120/71 117/117/71 118/118/71 119/119/71
f 124/124/72 123/123/72 122/122/72 121/121/72
f 102/102/73 99/99/73 100/100/73 101/101/73
f 98/98/74 95/95/74 96/96/74 97/97/74
f 106/106/75 103/103/75 104/104/75 105/105/75
f 88/88/76 85/85/76 86/86/76 87/87/76
f 164/164/10 163/163/10 91/91/10 92/92/10
f 166/166/11 165/165/11 93/93/11 94/94/11
f 175/175/12 148/148/12 147/147/12 176/176/12
f 151/151/77 150/150/77 149/149/77 152/152/77
f 155/155/78 154/154/78 153/153/78 156/156/78
f 159/159/79 158/158/79 157/157/79 160/160/79
f 141/141/80 140/140/80 139/139/80 142/142/80
f 137/137/81 136/136/81 135/135/81 138/138/81
f 145/145/82 144/144/82 143/143/82 146/146/82
f 127/127/83 126/126/83 125/125/83 128/128/83
f 82/82/84 81/81/84 121/121/84 122/122/84
f 83/83/85 82/82/85 122/122/85 123/123/85
f 84/84/86 83/83/86 123/123/86 124/124/86
f 81/81/87 84/84/87 124/124/87 121/121/87
f 86/86/88 85/85/88 125/125/88 126/126/88
f 87/87/89 86/86/89 126/126/89 127/127/89
f 88/88/90 87/87/90 127/127/90 128/128/90
f 85/85/91 88/88/91 128/128/91 125/125/91
f 90/90/92 89/89/92 129/129/92 130/130/92
f 162/162/93 90/90/93 130/130/93 170/170/93
f 92/92/94 91/91/94 131/131/94 132/132/94
f 164/164/95 92/92/95 132/132/95 172/172/95
f 94/94/96 93/93/96 133/133/96 134/134/96
f 166/166/33 94/94/33 134/134/33 174/174/33
f 96/96/97 95/95/97 135/135/97 136/136/97
f 97/97/98 96/96/98 136/136/98 137/137/98
f 98/98/99 97/97/99 137/137/99 138/138/99
f 95/95/100 98/98/100 138/138/100 135/135/100
f 100/100/101 99/99/101 139/139/101 140/140/101
f 101/101/102 100/100/102 140/140/102 141/141/102
f 102/102/103 101/101/103 141/141/103 142/142/103
f 99/99/104 102/102/104 142/142/104 139/139/104
f 104/104/105 103/103/105 143/143/105 144/144/105
f 105/105/106 104/104/106 144/144/106 145/145/106
f 106/106/107 105/105/107 145/145/107 146/146/107
f 103/103/108 106/106/108 146/146/108 143/143/108
f 108/108/109 107/107/109 147/147/109 148/148/109
f 167/167/47 108/108/47 148/148/47 175/175/47
f 110/110/110 109/109/110 149/149/110 150/150/110
f 111/111/111 110/110/111 150/150/111 151/151/111
f 112/112/112 111/111/112 151/151/112 152/152/112
f 109/109/113 112/112/113 152/152/113 149/149/113
f 114/114/114 113/113/114 153/153/114 154/154/114
f 115/115/115 114/114/115 154/154/115 155/155/115
f 116/116/116 115/115/116 155/155/116 156/156/116
f 113/113/117 116/116/117 156/156/117 153/153/117
f 118/118/118 117/117/118 157/157/118 158/158/118
f 119/119/119 118/118/119 158/158/119 159/159/119
f 120/120/120 119/119/120 159/159/120 160/160/120
f 117/117/121 120/120/121 160/160/121 157/157/121
f 107/107/60 168/168/60 176/176/60 147/147/60
f 93/93/61 165/165/61 173/173/61 133/133/61
f 91/91/62 163/163/62 171/171/62 131/131/62
f 89/89/63 161/161/63 169/169/63 129/129/63
f 134/134/64 133/133/64 173/173/64 174/174/64
f 132/132/65 131/131/65 171/171/65 172/172/65
f 129/129/66 169/169/66 170/170/66 130/130/66
f 90/90/67 162/162/67 161/161/67 89/89/67
f 84/84/122 81/81/122 82/82/122 83/83/122
f 179/179/123 177/177/123 178/178/123 180/180/123
f 181/181/124 183/183/124 184/184/124 182/182/124
f 200/200/125 199/199/125 198/198/125 197/197/125
f 204/204/125 203/203/125 202/202/125 201/201/125
f 196/196/126 195/195/126 194/194/126 193/193/126
f 214/214/126 213/213/126 206/206/126 205/205/126
f 216/216/126 215/215/126 212/212/126 211/211/126
f 210/210/127 209/209/127 208/208/127 207/207/127
f 192/192/126 191/191/126 190/190/126 189/189/126
f 188/188/127 187/187/127 186/186/127 185/185/127
f 244/244/128 243/243/128 242/242/128 241/241/128
f 240/240/129 239/239/129 238/238/129 237/237/129
f 222/222/128 221/221/128 220/220/128 219/219/128
f 246/246/129 245/245/129 218/218/129 217/217/129
f 248/248/129 224/224/129 223/223/129 247/247/129
f 236/236/129 235/235/129 234/234/129 233/233/129
f 228/228/130 227/227/130 226/226/130 225/225/130
f 232/232/130 231/231/130 230/230/130 229/229/130
f 256/256/131 255/255/131 254/254/131 253/253/131
f 249/249/132 252/252/132 251/251/132 250/250/132
f 272/272/133 269/269/133 270/270/133 271/271/133
f 265/265/134 266/266/134 267/267/134 268/268/134
s 1
f 261/261/134 264/264/134 263/263/134 262/262/134
f 260/260/135 259/259/135 258/258/135 257/257/135
f 277/277/132 278/278/132 279/279/132 280/280/132
f 276/276/136 273/273/136 274/274/136 275/275/136
