# Blender 3.4.1
# www.blender.org
mtllib lake.mtl
o Cylinder
v -14.097683 -1.228105 -31.017811
v -14.098242 0.997531 -31.022022
v -12.205486 -1.226264 -30.295456
v -12.206045 0.999372 -30.299667
v -10.501463 -1.223662 -29.145966
v -10.502022 1.001974 -29.150175
v -9.051097 -1.220399 -27.613510
v -9.051656 1.005237 -27.617722
v -7.910125 -1.216601 -25.756987
v -7.910684 1.009035 -25.761196
v -7.122395 -1.212414 -23.647736
v -7.122953 1.013222 -23.651945
v -6.718178 -1.207999 -21.366816
v -6.718737 1.017637 -21.371025
v -6.713008 -1.203525 -19.001883
v -6.713567 1.022111 -19.006090
v -7.107084 -1.199164 -16.643816
v -7.107643 1.026472 -16.648026
v -7.885262 -1.195084 -14.383240
v -7.885821 1.030552 -14.387449
v -9.017637 -1.191442 -12.307023
v -9.018196 1.034194 -12.311233
v -10.460691 -1.188378 -10.494956
v -10.461250 1.037258 -10.499166
v -12.158972 -1.186009 -9.016674
v -12.159531 1.039627 -9.020884
v -14.047211 -1.184426 -7.928987
v -14.047770 1.041210 -7.933196
v -16.052847 -1.183691 -7.273693
v -16.053406 1.041945 -7.277903
v -18.098804 -1.183831 -7.075976
v -18.099363 1.041805 -7.080186
v -20.106459 -1.184842 -7.343434
v -20.107018 1.040794 -7.347644
v -21.998655 -1.186683 -8.065789
v -21.999214 1.038953 -8.069999
v -23.702679 -1.189286 -9.215281
v -23.703238 1.036350 -9.219490
v -25.153046 -1.192548 -10.747735
v -25.153603 1.033088 -10.751945
v -26.294018 -1.196346 -12.604259
v -26.294575 1.029290 -12.608469
v -27.081747 -1.200533 -14.713511
v -27.082306 1.025103 -14.717720
v -27.485964 -1.204949 -16.994431
v -27.486523 1.020687 -16.998640
v -27.491135 -1.209422 -19.359365
v -27.491692 1.016214 -19.363573
v -27.097057 -1.213783 -21.717430
v -27.097616 1.011853 -21.721640
v -26.318878 -1.217863 -23.978006
v -26.319439 1.007773 -23.982216
v -25.186504 -1.221505 -26.054222
v -25.187063 1.004131 -26.058434
v -23.743450 -1.224569 -27.866291
v -23.744009 1.001067 -27.870499
v -22.045170 -1.226938 -29.344572
v -22.045729 0.998698 -29.348782
v -20.156931 -1.228521 -30.432259
v -20.157490 0.997115 -30.436470
v -18.151295 -1.229256 -31.087553
v -18.151854 0.996380 -31.091763
v -16.105337 -1.229116 -31.285271
v -16.105896 0.996520 -31.289478
vn 0.3567 -0.0017 -0.9342
vn 0.5592 -0.0014 -0.8290
vn 0.7263 -0.0011 -0.6874
vn 0.8520 -0.0008 -0.5236
vn 0.9368 -0.0004 -0.3499
vn 0.9847 -0.0001 -0.1745
vn 1.0000 0.0002 -0.0022
vn 0.9863 0.0006 0.1648
vn 0.9455 0.0009 0.3255
vn 0.8779 0.0011 0.4788
vn 0.7823 0.0014 0.6230
vn 0.6566 0.0016 0.7543
vn 0.4991 0.0018 0.8665
vn 0.3106 0.0019 0.9505
vn 0.0962 0.0019 0.9954
vn -0.1321 0.0018 0.9912
vn -0.3567 0.0017 0.9342
vn -0.5592 0.0014 0.8290
vn -0.7263 0.0011 0.6874
vn -0.8520 0.0008 0.5236
vn -0.9368 0.0004 0.3499
vn -0.9847 0.0001 0.1745
vn -1.0000 -0.0002 0.0022
vn -0.9863 -0.0006 -0.1648
vn -0.9455 -0.0009 -0.3255
vn -0.8779 -0.0011 -0.4788
vn -0.7823 -0.0014 -0.6230
vn -0.6566 -0.0016 -0.7543
vn -0.4991 -0.0018 -0.8665
vn -0.3106 -0.0019 -0.9505
vn -0.0003 1.0000 -0.0019
vn -0.0962 -0.0019 -0.9954
vn 0.1321 -0.0018 -0.9912
vn 0.0003 -1.0000 0.0019
vt 2.011943 0.489881
vt -1.011943 0.489881
vt 1.255972 0.459642
vt 2.011943 2.001824
vt -0.255972 0.459642
vt -1.011943 2.001824
vt 1.917447 0.489881
vt 1.397555 0.445697
vt 1.917447 2.001824
vt -0.114388 0.445697
vt 1.822950 0.489881
vt 1.533697 0.404399
vt 1.822950 2.001824
vt 0.021754 0.404399
vt 1.728454 0.489881
vt 1.659167 0.337334
vt 1.728454 2.001824
vt 0.147224 0.337334
vt 1.633957 0.489881
vt 1.769142 0.247080
vt 1.633957 2.001824
vt 0.257199 0.247080
vt 1.539461 0.489881
vt 1.859396 0.137104
vt 1.539461 2.001824
vt 0.347453 0.137104
vt 1.444964 0.489881
vt 1.926461 0.011635
vt 1.444964 2.001824
vt 0.414518 0.011635
vt 1.350468 0.489881
vt 1.967759 -0.124508
vt 1.350468 2.001824
vt 0.455816 -0.124508
vt 1.255972 0.489881
vt 1.981704 -0.266091
vt 1.255972 2.001824
vt 0.469761 -0.266091
vt 1.161475 0.489881
vt 1.967759 -0.407674
vt 1.161475 2.001824
vt 0.455816 -0.407674
vt 1.066979 0.489881
vt 1.926461 -0.543817
vt 1.066979 2.001824
vt 0.414518 -0.543817
vt 0.972482 0.489881
vt 1.859396 -0.669286
vt 0.972482 2.001824
vt 0.347453 -0.669286
vt 0.877986 0.489881
vt 1.769142 -0.779261
vt 0.877986 2.001824
vt 0.257199 -0.779261
vt 0.783489 0.489881
vt 1.659167 -0.869516
vt 0.783489 2.001824
vt 0.147224 -0.869516
vt 0.688993 0.489881
vt 1.533697 -0.936581
vt 0.688993 2.001824
vt 0.021754 -0.936581
vt 0.594496 0.489881
vt 1.397555 -0.977879
vt 0.594496 2.001824
vt -0.114388 -0.977879
vt 0.500000 0.489881
vt 1.255972 -0.991824
vt 0.500000 2.001824
vt -0.255972 -0.991824
vt 0.405504 0.489881
vt 1.114388 -0.977879
vt 0.405504 2.001824
vt -0.397555 -0.977879
vt 0.311007 0.489881
vt 0.978246 -0.936581
vt 0.311007 2.001824
vt -0.533697 -0.936581
vt 0.216511 0.489881
vt 0.852776 -0.869516
vt 0.216511 2.001824
vt -0.659167 -0.869516
vt 0.122014 0.489881
vt 0.742801 -0.779261
vt 0.122014 2.001824
vt -0.769142 -0.779261
vt 0.027518 0.489881
vt 0.652547 -0.669286
vt 0.027518 2.001824
vt -0.859396 -0.669286
vt -0.066979 0.489881
vt 0.585482 -0.543817
vt -0.066979 2.001824
vt -0.926461 -0.543817
vt -0.161475 0.489881
vt 0.544184 -0.407674
vt -0.161475 2.001824
vt -0.967759 -0.407674
vt -0.255972 0.489881
vt 0.530239 -0.266091
vt -0.255972 2.001824
vt -0.981704 -0.266091
vt -0.350468 0.489881
vt 0.544184 -0.124508
vt -0.350468 2.001824
vt -0.967759 -0.124508
vt -0.444964 0.489881
vt 0.585482 0.011635
vt -0.444964 2.001824
vt -0.926461 0.011635
vt -0.539461 0.489881
vt 0.652547 0.137104
vt -0.539461 2.001824
vt -0.859396 0.137104
vt -0.633957 0.489881
vt 0.742801 0.247080
vt -0.633957 2.001824
vt -0.769142 0.247080
vt -0.728454 0.489881
vt 0.852776 0.337334
vt -0.728454 2.001824
vt -0.659167 0.337334
vt -0.822950 0.489881
vt 0.978246 0.404399
vt -0.533697 0.404399
vt -0.822950 2.001824
vt -0.917447 0.489881
vt 1.114388 0.445697
vt -0.397555 0.445697
vt -0.917447 2.001824
s 0
usemtl Material.011
f 1/1/1 2/4/1 4/9/1 3/7/1
f 3/7/2 4/9/2 6/13/2 5/11/2
f 5/11/3 6/13/3 8/17/3 7/15/3
f 7/15/4 8/17/4 10/21/4 9/19/4
f 9/19/5 10/21/5 12/25/5 11/23/5
f 11/23/6 12/25/6 14/29/6 13/27/6
f 13/27/7 14/29/7 16/33/7 15/31/7
f 15/31/8 16/33/8 18/37/8 17/35/8
f 17/35/9 18/37/9 20/41/9 19/39/9
f 19/39/10 20/41/10 22/45/10 21/43/10
f 21/43/11 22/45/11 24/49/11 23/47/11
f 23/47/12 24/49/12 26/53/12 25/51/12
f 25/51/13 26/53/13 28/57/13 27/55/13
f 27/55/14 28/57/14 30/61/14 29/59/14
f 29/59/15 30/61/15 32/65/15 31/63/15
f 31/63/16 32/65/16 34/69/16 33/67/16
f 33/67/17 34/69/17 36/73/17 35/71/17
f 35/71/18 36/73/18 38/77/18 37/75/18
f 37/75/19 38/77/19 40/81/19 39/79/19
f 39/79/20 40/81/20 42/85/20 41/83/20
f 41/83/21 42/85/21 44/89/21 43/87/21
f 43/87/22 44/89/22 46/93/22 45/91/22
f 45/91/23 46/93/23 48/97/23 47/95/23
f 47/95/24 48/97/24 50/101/24 49/99/24
f 49/99/25 50/101/25 52/105/25 51/103/25
f 51/103/26 52/105/26 54/109/26 53/107/26
f 53/107/27 54/109/27 56/113/27 55/111/27
f 55/111/28 56/113/28 58/117/28 57/115/28
f 57/115/29 58/117/29 60/121/29 59/119/29
f 59/119/30 60/121/30 62/126/30 61/123/30
f 4/10/31 2/5/31 64/129/31 62/125/31 60/122/31 58/118/31 56/114/31 54/110/31 52/106/31 50/102/31 48/98/31 46/94/31 44/90/31 42/86/31 40/82/31 38/78/31 36/74/31 34/70/31 32/66/31 30/62/31 28/58/31 26/54/31 24/50/31 22/46/31 20/42/31 18/38/31 16/34/31 14/30/31 12/26/31 10/22/31 8/18/31 6/14/31
f 61/123/32 62/126/32 64/130/32 63/127/32
f 63/127/33 64/130/33 2/6/33 1/2/33
f 1/3/34 3/8/34 5/12/34 7/16/34 9/20/34 11/24/34 13/28/34 15/32/34 17/36/34 19/40/34 21/44/34 23/48/34 25/52/34 27/56/34 29/60/34 31/64/34 33/68/34 35/72/34 37/76/34 39/80/34 41/84/34 43/88/34 45/92/34 47/96/34 49/100/34 51/104/34 53/108/34 55/112/34 57/116/34 59/120/34 61/124/34 63/128/34
